<?xml version="1.0" standalone="no"?><!DOCTYPE svg PUBLIC "-//W3C//DTD SVG 1.1//EN" "http://www.w3.org/Graphics/SVG/1.1/DTD/svg11.dtd"><svg t="1692235771071" class="icon" viewBox="0 0 1024 1024" version="1.1" xmlns="http://www.w3.org/2000/svg" p-id="47215" xmlns:xlink="http://www.w3.org/1999/xlink" width="128" height="128"><path d="M495.456711 520.635733c-136.180622 0-248.228978-112.059733-248.228978-248.251733 0-136.180622 112.059733-248.820622 248.228978-248.820622 136.203378 0 248.251733 112.628622 248.251733 248.820622-0.568889 136.192-112.628622 248.251733-248.251733 248.251733z m0 0" fill="#3072f3" p-id="47216"></path><path d="M531.080533 774.052978c0-103.446756 60.916622-193.080889 149.412978-234.461867-75.844267-29.309156-151.119644-38.491022-221.218133-38.491022C243.768889 518.3488 64.489244 682.678044 21.378844 903.350044c-4.016356 17.260089 0 34.474667 10.922667 50.005334 10.911289 13.2096 28.16 21.822578 45.397333 21.822578h549.922134c-59.175822-47.707022-96.540444-120.092444-96.540445-201.124978z m0 0" fill="#3072f3" p-id="47217"></path><path d="M789.105778 547.6352c-125.280711 0-226.417778 101.1712-226.417778 226.417778 0 125.269333 101.148444 226.383644 226.417778 226.383644 125.269333 0 226.395022-101.125689 226.395022-226.383644 0.011378-125.257956-101.717333-226.417778-226.395022-226.417778z m-27.010845 347.101867c-9.762133 10.353778-27.022222 10.911289-37.353244 1.137777l-102.274845-97.120711c-10.3424-9.750756-10.934044-26.988089-1.171911-37.341866 9.773511-10.319644 27.010844-10.899911 37.364623-1.160534l82.7392 79.337245 176.412444-185.048178c9.773511-10.3424 27.010844-10.945422 37.341867-1.160533 10.353778 9.773511 10.922667 27.010844 1.171911 37.353244l-194.230045 204.003556z m0 0" fill="#3072f3" p-id="47218"></path></svg>