<?xml version="1.0" standalone="no"?><!DOCTYPE svg PUBLIC "-//W3C//DTD SVG 1.1//EN" "http://www.w3.org/Graphics/SVG/1.1/DTD/svg11.dtd"><svg t="1693450253190" class="icon" viewBox="0 0 1024 1024" version="1.1" xmlns="http://www.w3.org/2000/svg" p-id="8207" xmlns:xlink="http://www.w3.org/1999/xlink" width="128" height="128"><path d="M235.673 525.537l7.018-1.674 0.718-0.204c18.965-6.303 31.707-23.085 31.707-41.76 0-18.026-11.597-34.084-29.57-40.983-35.246-16.015-58.01-51.127-58.01-89.527 0-44.727 39.575-80.837 78.667-93.39l4.191-1.346 1.364-4.184c7.197-22.069 18.058-42.653 32.282-61.183l0.53-0.775a233.188 233.188 0 0 1 7.74-11.889l8.867-12.773-15.53-0.743c-0.898-0.043-1.939-0.189-3.041-0.343-1.77-0.25-3.774-0.53-6.037-0.53-103.849 0-188.337 83.959-188.337 187.158 0 42.744 14.786 83.978 41.843 117.268C57.476 520.657 0.401 617.732 0.401 724.57v55.225c0 24.439 19.983 44.323 44.546 44.323h73.013v-8.614c0-23.085 2.18-37.63 7.069-61.497l2.117-10.342h-47.44v-19.094c0-94.161 64.176-176.016 155.967-199.034zM873.982 468.656c27.059-33.29 41.844-74.526 41.844-117.268 0-103.218-84.488-187.19-188.338-187.19-2.266 0-4.271 0.283-6.04 0.533-1.1 0.155-2.14 0.302-3.037 0.345l-15.534 0.74 8.868 12.775c2.777 4 5.38 7.999 7.74 11.888l0.533 0.777c14.235 18.54 25.086 39.123 32.252 61.176l1.363 4.193 4.197 1.346c41.034 13.172 84.648 50.379 84.648 93.39 0 38.41-22.762 73.522-58.007 89.526-17.979 6.893-29.578 22.949-29.578 40.983 0 18.667 12.742 35.447 31.706 41.754l7.642 1.86c91.888 23.06 156.065 104.925 156.065 199.083v19.094h-53.463l2.133 10.35c4.788 23.247 7.065 38.378 7.065 61.49v8.614h73.013c24.564 0 44.547-19.883 44.547-44.323v-55.22c0.055-106.834-56.989-203.908-149.619-255.916z" p-id="8208" fill="#ffffff"></path><path d="M661.495 481.597c47.843-42.405 75-102.121 75-165.973 0-122.877-100.607-222.846-224.27-222.846-123.662 0-224.27 99.969-224.27 222.846 0 63.854 27.157 123.57 75 165.973-61.912 27.375-114.826 70.942-153.652 126.67-42.596 61.138-65.111 132.8-65.111 207.236v71.39c0 24.443 19.983 44.328 44.546 44.328h646.97c24.563 0 44.546-19.886 44.546-44.328v-71.39c0-74.458-22.515-146.128-65.109-207.258-38.82-55.713-91.735-99.273-153.65-126.648z m-149.242 49.738c163.614 0 296.725 132.232 296.725 294.767v29.307H215.444v-29.307c0-162.535 133.147-294.767 296.809-294.767zM364.829 315.341c0-80.704 66.122-146.362 147.396-146.362s147.396 65.657 147.396 146.362-66.12 146.362-147.396 146.362S364.83 396.045 364.83 315.341z" p-id="8209" fill="#ffffff"></path></svg>