<?xml version="1.0" standalone="no"?><!DOCTYPE svg PUBLIC "-//W3C//DTD SVG 1.1//EN"
        "http://www.w3.org/Graphics/SVG/1.1/DTD/svg11.dtd">
<svg t="1692234970819" class="icon" viewBox="0 0 1024 1024" version="1.1" xmlns="http://www.w3.org/2000/svg"
     p-id="20783" xmlns:xlink="http://www.w3.org/1999/xlink" width="128" height="128">
    <path d="M924.103111 800.540444c0 1.080889-0.568889 2.161778-1.137778 3.185778a23.893333 23.893333 0 0 1-4.266666 5.916445c-0.568889 1.137778-1.080889 1.649778-1.592889 2.161777a39.822222 39.822222 0 0 1-28.444445 11.832889 38.968889 38.968889 0 0 1-28.501333-11.832889l-60.188444-59.619555a8.760889 8.760889 0 0 0-3.242667 1.592889l-3.754667 2.161778c-3.185778 2.161778-6.940444 3.754667-10.752 5.347555a149.333333 149.333333 0 0 1-36.522666 13.425778c-4.835556 1.649778-9.671111 2.730667-15.018667 3.242667-10.24 1.592889-20.48 2.673778-30.663111 2.673777A187.904 187.904 0 0 1 512 592.611556a187.904 187.904 0 0 1 188.017778-188.074667 188.302222 188.302222 0 0 1 188.074666 188.074667c0 20.935111-3.242667 41.358222-10.24 60.188444-2.673778 9.671111-6.940444 18.773333-11.776 27.363556a100.238222 100.238222 0 0 1-8.590222 15.075555l59.619556 59.619556a38.684444 38.684444 0 0 1 6.997333 45.681777zM456.135111 522.752a39.196444 39.196444 0 0 1-38.115555 29.582222H229.888a40.049778 40.049778 0 0 1-39.822222-34.929778c-0.512-1.649778-0.512-3.242667-0.512-5.404444 0-1.592889 0-3.754667 0.568889-5.347556a40.504889 40.504889 0 0 1 39.765333-34.929777h188.017778c19.911111 0 36.522667 15.018667 39.253333 33.848889 1.024 2.161778 1.024 4.266667 1.024 6.428444l-2.104889 10.752z m0 241.777778a39.196444 39.196444 0 0 1-38.115555 29.582222H229.888a40.049778 40.049778 0 0 1-39.822222-34.929778c-0.512-1.649778-0.512-3.242667-0.512-5.404444 0-1.592889 0-3.754667 0.568889-5.347556a40.504889 40.504889 0 0 1 39.765333-34.929778h188.017778c19.911111 0 36.522667 15.018667 39.253333 33.848889 1.024 2.161778 1.024 4.266667 1.024 6.428445l-2.104889 10.752zM190.179556 264.874667a40.504889 40.504889 0 0 1 39.765333-34.929778h564.110222c19.911111 0 36.522667 15.018667 39.253333 33.848889 1.080889 2.161778 1.080889 4.266667 1.080889 6.428444l-2.161777 10.752a39.196444 39.196444 0 0 1-38.115556 29.582222H229.888a40.049778 40.049778 0 0 1-39.822222-34.929777c-0.512-1.649778-0.512-3.242667-0.512-5.404445 0-1.592889 0-3.754667 0.568889-5.347555zM888.035556 28.444444H135.907556C76.231111 28.444444 28.387556 76.8 28.387556 135.964444v752.184889c0 59.676444 47.843556 107.52 107.52 107.52H888.035556C947.2 995.555556 995.555556 947.768889 995.555556 888.035556V135.964444C995.555556 76.8 947.2 28.444444 888.035556 28.444444z"
          fill="#3072f3" p-id="20784"></path>
    <path d="M807.480889 592.611556c0 15.530667-3.185778 30.606222-9.671111 43.52a102.229333 102.229333 0 0 1-58.026667 55.864888 99.271111 99.271111 0 0 1-39.708444 8.021334 107.064889 107.064889 0 0 1-107.52-107.406222 107.406222 107.406222 0 1 1 214.926222 0"
          fill="#3072f3" p-id="20785"></path>
</svg>
