<?xml version="1.0" standalone="no"?><!DOCTYPE svg PUBLIC "-//W3C//DTD SVG 1.1//EN" "http://www.w3.org/Graphics/SVG/1.1/DTD/svg11.dtd"><svg t="1692235557576" class="icon" viewBox="0 0 1024 1024" version="1.1" xmlns="http://www.w3.org/2000/svg" p-id="34897" xmlns:xlink="http://www.w3.org/1999/xlink" width="128" height="128"><path d="M704 96A96 96 0 0 1 800 192v248.64c-4.48 4.992-8.512 10.496-11.968 16.512l-161.088 278.976a96 96 0 0 0-12.16 59.52l8.32 68.8a96 96 0 0 0 35.584 63.68L192 928A96 96 0 0 1 96 832V192A96 96 0 0 1 192 96h512zM467.2 627.2h-192a32 32 0 1 0 0 64h192a32 32 0 1 0 0-64z m147.2-185.6H275.2a32 32 0 0 0 0 64h339.2a32 32 0 0 0 0-64z m0-185.6H275.2a32 32 0 0 0 0 64h339.2a32 32 0 0 0 0-64z" fill="#3072f3" p-id="34898"></path><path d="M670.464 753.856l161.024-279.04a38.4 38.4 0 0 1 52.48-14.016l72.064 41.6a38.4 38.4 0 0 1 14.08 52.48l-161.088 278.976a38.4 38.4 0 0 1-18.176 16.064l-63.744 27.264a38.4 38.4 0 0 1-53.248-30.72l-8.32-68.864a38.4 38.4 0 0 1 4.928-23.744z" fill="#3072f3" p-id="34899"></path></svg>