<?xml version="1.0" standalone="no"?><!DOCTYPE svg PUBLIC "-//W3C//DTD SVG 1.1//EN"
        "http://www.w3.org/Graphics/SVG/1.1/DTD/svg11.dtd">
<svg t="1692171172731" class="icon" viewBox="0 0 1024 1024" version="1.1" xmlns="http://www.w3.org/2000/svg"
     p-id="11723" xmlns:xlink="http://www.w3.org/1999/xlink" width="128" height="128">
    <path d="M511.6 64.5c-246.5 0-446.2 199.8-446.2 446.2 0 246.5 199.8 446.2 446.2 446.2 246.5 0 446.2-199.8 446.2-446.2 0-246.4-199.8-446.2-446.2-446.2z m151.8 615.8l-15.8 15.8c-8.7 8.7-22.9 8.7-31.6 0L471.3 551.3c-5-5-4.4-15.1-4.4-25V243c0-12.3 10-22.3 22.3-22.3h22.3c12.3 0 22.3 10 22.3 22.3v276.2l129.5 129.5c8.7 8.7 8.7 22.9 0.1 31.6z m0 0"
          fill="#a0acc3" p-id="11724"></path>
</svg>
