<?xml version="1.0" standalone="no"?><!DOCTYPE svg PUBLIC "-//W3C//DTD SVG 1.1//EN" "http://www.w3.org/Graphics/SVG/1.1/DTD/svg11.dtd"><svg t="1693450314249" class="icon" viewBox="0 0 1024 1024" version="1.1" xmlns="http://www.w3.org/2000/svg" p-id="10167" xmlns:xlink="http://www.w3.org/1999/xlink" width="128" height="128"><path d="M512 85.333333a426.666667 426.666667 0 0 1 301.568 124.842667l0.128 0.128a426.666667 426.666667 0 0 1 11.648 591.274667l-11.648 12.117333A426.666667 426.666667 0 0 1 210.346667 210.346667l0.085333-0.170667 10.069333-9.642667A426.666667 426.666667 0 0 1 512 85.333333zM394.410667 689.962667l-91.733334 91.690666a341.376 341.376 0 0 0 418.602667 0l-91.690667-91.690666a213.248 213.248 0 0 1-235.178666 0z m387.242666-387.242667L689.92 394.410667a213.248 213.248 0 0 1 0 235.178666l91.690667 91.733334a341.376 341.376 0 0 0 0-418.602667zM170.666667 512a341.333333 341.333333 0 0 0 71.68 209.28l91.648-91.733333a213.248 213.248 0 0 1 0.042666-235.136L242.346667 302.677333A341.333333 341.333333 0 0 0 170.666667 512z m341.333333-128c-31.104 0-61.013333 11.349333-84.309333 31.744l-6.186667 5.76a128 128 0 0 0-5.76 174.805333l5.76 6.186667A128 128 0 1 0 512 384z m0-213.333333a341.333333 341.333333 0 0 0-209.28 71.68L394.410667 334.08a213.248 213.248 0 0 1 235.178666 0l91.733334-91.690667A341.333333 341.333333 0 0 0 512 170.666667z" fill="#ffffff" p-id="10168"></path></svg>