<?xml version="1.0" standalone="no"?><!DOCTYPE svg PUBLIC "-//W3C//DTD SVG 1.1//EN" "http://www.w3.org/Graphics/SVG/1.1/DTD/svg11.dtd"><svg t="1692235860373" class="icon" viewBox="0 0 1152 1024" version="1.1" xmlns="http://www.w3.org/2000/svg" p-id="53017" xmlns:xlink="http://www.w3.org/1999/xlink" width="144" height="128"><path d="M1094.399316 227.583858h-575.99964a57.215964 57.215964 0 0 1-57.599964-56.959965c0-31.35998 25.791984-56.831964 57.599964-56.831964h575.99964c31.80798 0 57.599964 25.471984 57.599964 56.895964 0 31.35998-25.791984 56.895964-57.599964 56.895965z m0 341.311786H633.599604A57.215964 57.215964 0 0 1 575.99964 511.99968c0-31.35998 25.791984-56.895964 57.599964-56.895964h460.799712c31.80798 0 57.599964 25.471984 57.599964 56.895964 0 31.35998-25.791984 56.895964-57.599964 56.895964z m0 341.311787h-575.99964a57.215964 57.215964 0 0 1-57.599964-56.895964c0-31.35998 25.791984-56.895964 57.599964-56.895965h575.99964c31.80798 0 57.599964 25.471984 57.599964 56.959965 0 31.35998-25.791984 56.831964-57.599964 56.831964zM172.799892 739.583538a57.215964 57.215964 0 0 1-57.599964-56.959965V341.375787c0-31.35998 25.791984-56.895964 57.599964-56.895965s57.599964 25.471984 57.599964 56.959965v341.311786c0 31.35998-25.791984 56.895964-57.599964 56.895965zM172.799892 1023.99936a173.183892 173.183892 0 0 1-149.631906-85.311947 168.831894 168.831894 0 0 1 0-170.687893A173.183892 173.183892 0 0 1 172.799892 682.687573c95.42394 0 172.799892 76.415952 172.799892 170.623894C345.599784 947.583408 268.223832 1023.99936 172.799892 1023.99936z m0-227.583858c-31.80798 0-57.599964 25.471984-57.599964 56.959965 0 31.35998 25.791984 56.831964 57.599964 56.831964s57.599964-25.471984 57.599964-56.895964a57.215964 57.215964 0 0 0-57.599964-56.895965z m0-455.039715C77.375952 341.311787 0 264.831834 0 170.623893 0 76.415952 77.375952 0 172.799892 0s172.799892 76.415952 172.799892 170.687893c0 94.207941-77.375952 170.623893-172.799892 170.623894z m0-227.583858c-31.80798 0-57.599964 25.471984-57.599964 56.895964 0 31.35998 25.791984 56.895964 57.599964 56.895965s57.599964-25.471984 57.599964-56.959965a57.215964 57.215964 0 0 0-57.599964-56.831964z" fill="#3072f3" p-id="53018"></path></svg>