<?xml version="1.0" standalone="no"?><!DOCTYPE svg PUBLIC "-//W3C//DTD SVG 1.1//EN" "http://www.w3.org/Graphics/SVG/1.1/DTD/svg11.dtd"><svg t="1693450158766" class="icon" viewBox="0 0 1024 1024" version="1.1" xmlns="http://www.w3.org/2000/svg" p-id="4061" xmlns:xlink="http://www.w3.org/1999/xlink" width="128" height="128"><path d="M385.408 510.421333l10.24 63.146667c-150.698667 24.32-204.544 94.805333-214.101333 239.36-1.408 21.461333 1.621333 28.714667 21.12 29.653333l4.778666 0.085334h609.962667c16 0 21.162667-2.645333 23.168-6.4 1.92-3.626667 2.474667-9.813333 1.749333-21.205334-8.917333-141.824-59.690667-212.693333-200.96-239.146666l-11.306666-2.005334 10.453333-63.146666c181.888 30.08 254.805333 127.061333 265.685333 300.288 1.450667 22.656 0.085333 37.973333-9.173333 55.338666-12.928 24.32-37.546667 38.186667-71.594667 40.064l-8.021333 0.213334H207.445333c-69.888 0-93.397333-42.794667-89.728-98.005334 11.093333-168.362667 81.792-264.362667 255.445334-296.106666l12.245333-2.133334z" fill="#ffffff" p-id="4062"></path><path d="M512 117.333333a245.333333 245.333333 0 1 0 0 490.666667 245.333333 245.333333 0 0 0 0-490.666667z m0 64a181.333333 181.333333 0 1 1 0 362.666667 181.333333 181.333333 0 0 1 0-362.666667z" fill="#ffffff" p-id="4063"></path></svg>